<svg fill="none" height="14" viewBox="0 0 14 14" width="14" xmlns="http://www.w3.org/2000/svg" xmlns:xlink="http://www.w3.org/1999/xlink"><clipPath id="a"><path d="m0 0h14v14h-14z"/></clipPath><g clip-path="url(#a)" stroke="#000" stroke-linecap="round" stroke-linejoin="round"><path d="m3 5.5v-4c0-.552285.44772-1 1-1h6c.5523 0 1 .447715 1 1v4"/><path d="m5 3.00049h4"/><path d="m2.5 5.5h2.5c0 1.10457.89543 2.00049 2 2.00049s2-.89543 2-2l2.4998-.00049c.5522 0 1 .44772 1 1v2l1 3v1c0 .5523-.4478 1-1 1h-10.9998c-.552285 0-1-.4477-1-1v-1l1-3v-2c0-.55228.44772-1 1-1z"/><path d="m4 11.5h6"/><path d="m3.00012 9.5h.5"/><path d="m5.50012 9.5h.5"/><path d="m8 9.5h.5"/><path d="m10.5 9.5h.5"/><path d="m1.5 7h-1"/><path d="m12.5 7h1"/></g></svg>